# xmcd CD database file
#
# Track frame offsets:
#	150
#	11804
#	23607
#	40236
#	54752
#	70514
#	85382
#	98541
#	114610
#	127121
#
# Disc length: 1904 seconds
#
# Revision: 0
# Processed by: cddbd v1.5.2PL0 Copyright (c) Steve Scherf et al.
# Submitted via: CDex 1.94
#
DISCID=75076e0a
DTITLE=Robert Finley - Goin' Platinum!
DYEAR=2017
DGENRE=Blues
TTITLE0=Robert Finley - Get It While You Can
TTITLE1=Robert Finley - Medicine Woman
TTITLE2=Robert Finley - If You Forget My Love
TTITLE3=Robert Finley - Three Jumpers
TTITLE4=Robert Finley - Honey, Let Me Stay the Night
TTITLE5=Robert Finley - You Don't Have to Do Right
TTITLE6=Robert Finley - Complications
TTITLE7=Robert Finley - Real Love Is Like Hard Time
TTITLE8=Robert Finley - Empty Arms
TTITLE9=Robert Finley - Holy Wine
EXTD=YEAR: 2017
EXTT0=
EXTT1=
EXTT2=
EXTT3=
EXTT4=
EXTT5=
EXTT6=
EXTT7=
EXTT8=
EXTT9=
PLAYORDER=
